<svg xmlns="http://www.w3.org/2000/svg" viewBox="0 0 64 64" width="64" height="64">
  <!-- Призрак -->
  <path d="M 32,12 Q 44,12 50,20 Q 56,28 52,40 Q 48,52 32,56 Q 16,52 12,40 Q 8,28 14,20 Q 20,12 32,12 Z" 
        fill="#4a5568"/>
  
  <!-- Волны снизу -->
  <path d="M 16,56 Q 20,52 24,56 Q 28,60 32,56 Q 36,52 40,56 Q 44,60 48,56" 
        fill="none" stroke="#2d3748" stroke-width="2"/>
  
  <!-- Глаза -->
  <circle cx="26" cy="28" r="4" fill="#1a202c"/>
  <circle cx="38" cy="28" r="4" fill="#1a202c"/>
  <circle cx="26" cy="28" r="1.5" fill="#ff6b6b"/>
  <circle cx="38" cy="28" r="1.5" fill="#ff6b6b"/>
  
  <!-- Рот -->
  <path d="M 26,38 Q 32,42 38,38" 
        stroke="#ff6b6b" stroke-width="2" fill="none"/>
  
  <!-- Тело функции -->
  <rect x="28" y="42" width="8" height="8" rx="2" fill="#ffd93d"/>
  <text x="32" y="48" text-anchor="middle" font-family="monospace" font-size="6" fill="#1a202c">f</text>
</svg>